<svg width="32" height="32" viewBox="0 0 32 32" fill="none" xmlns="http://www.w3.org/2000/svg">
  <defs>
    <linearGradient id="gradient" x1="0%" y1="0%" x2="100%" y2="100%">
      <stop offset="0%" style="stop-color:#0ea5e9;stop-opacity:1" />
      <stop offset="100%" style="stop-color:#0284c7;stop-opacity:1" />
    </linearGradient>
  </defs>
  
  <!-- Background circle -->
  <circle cx="16" cy="16" r="15" fill="url(#gradient)" stroke="#ffffff" stroke-width="2"/>
  
  <!-- Microphone icon -->
  <path d="M16 4C14.3431 4 13 5.34315 13 7V13C13 14.6569 14.3431 16 16 16C17.6569 16 19 14.6569 19 13V7C19 5.34315 17.6569 4 16 4Z" fill="white"/>
  <path d="M11 13C11 13.5523 11.4477 14 12 14C12.5523 14 13 13.5523 13 13H11ZM19 13C19 13.5523 19.4477 14 20 14C20.5523 14 21 13.5523 21 13H19ZM11 13V15C11 18.3137 13.6863 21 17 21H15C15 21.5523 15.4477 22 16 22C16.5523 22 17 21.5523 17 21H15C18.3137 21 21 18.3137 21 15V13H19V15C19 17.2091 17.2091 19 15 19H17C14.7909 19 13 17.2091 13 15V13H11Z" fill="white"/>
  
  <!-- Dollar sign -->
  <circle cx="24" cy="8" r="6" fill="#22c55e" stroke="#ffffff" stroke-width="1.5"/>
  <path d="M24 5V11M22 7H25C25.5523 7 26 7.44772 26 8C26 8.55228 25.5523 9 25 9H23C22.4477 9 22 9.44772 22 10C22 10.5523 22.4477 11 23 11H26" stroke="white" stroke-width="1.5" stroke-linecap="round"/>
</svg>